# xmcd
#
# Track frame offsets:
#	150
#	12303
#	24133
#	37088
#	53126
#	66765
#	76833
#	87988
#	98513
#	109886
#	119447
#	129770
#	142395
#	154923
#	170061
#	183474
#	194119
#	207779
#	217734
#	227307
#
# Disc length: 3149 seconds
#
# Revision: 0
# Processed by: cddbd v1.5.2PL0 Copyright (c) Steve Scherf et al.
# Submitted via: EZCDAudioConverter 2.8.0.1
#
DISCID=0f0c4b14
DTITLE=Porter Wagoner - The Farmer and Tore Down
DYEAR=1974
DGENRE=Country
TTITLE0=Conversation
TTITLE1=The Farmer
TTITLE2=Daddy's Working Boots
TTITLE3=My Dad
TTITLE4=Moments Of Meditation
TTITLE5=Wake Up  Jacob
TTITLE6=The Country Farm
TTITLE7=The Sun Don't Shine (On The Same Dog Every Day)
TTITLE8=Country Bo-Bo
TTITLE9=Bones
TTITLE10=Tore Down
TTITLE11=The Finish Line
TTITLE12=Nothing Between
TTITLE13=Cassie
TTITLE14=Graduation Day
TTITLE15=Old Black Kettle
TTITLE16=George Leroy Chickashea
TTITLE17=Somewhere In The Night
TTITLE18=I See Love
TTITLE19=Happy Faces
EXTD=
EXTT0=
EXTT1=
EXTT2=
EXTT3=
EXTT4=
EXTT5=
EXTT6=
EXTT7=
EXTT8=
EXTT9=
EXTT10=
EXTT11=
EXTT12=
EXTT13=
EXTT14=
EXTT15=
EXTT16=
EXTT17=
EXTT18=
EXTT19=
PLAYORDER=
